<svg data-v-0dd9719b="" version="1.0" xmlns="http://www.w3.org/2000/svg" xmlns:xlink="http://www.w3.org/1999/xlink" width="100%" height="100%" viewBox="0 0 340.000000 250.000000" preserveAspectRatio="xMidYMid meet" color-interpolation-filters="sRGB" style="margin: auto;"> <rect data-v-0dd9719b="" x="0" y="0" width="100%" height="100%" fill="#ffffff" fill-opacity="1" class="background"></rect>  <g data-v-0dd9719b="" fill="#a7d0cd" class="icon-text-wrapper icon-svg-group iconsvg" transform="translate(80.51000214368105,82.58000183105469)"><g class="iconsvg-imagesvg" transform="translate(59.48999786376953,0)"><g><rect fill="#a7d0cd" fill-opacity="0" stroke-width="2" x="0" y="0" width="60" height="60" class="image-rect"></rect> <svg filter="url(#colors5963662322)" x="0" y="0" width="60" height="60" filtersec="colorsf6551209693" class="image-svg-svg primary" style="overflow: visible;"><svg xmlns="http://www.w3.org/2000/svg" viewBox="0 0 71.1 71.1"><path d="M35.5 69.1C17 69.1 2 54 2 35.5S17 2 35.5 2 69 17 69 35.5 54 69.1 35.5 69.1zm33.6-33.6V69c-18.5 0-33.5-15-33.5-33.5S20.5 2 2 2v33.5m0 0V69c18.5 0 33.5-15 33.5-33.5S50.5 2 69.1 2v33.5" fill="none" stroke="#202121" stroke-width="4" stroke-miterlimit="10"></path></svg></svg> <defs><filter id="colors5963662322"><feColorMatrix type="matrix" values="0 0 0 0 0.65234375  0 0 0 0 0.8125  0 0 0 0 0.80078125  0 0 0 1 0" class="icon-fecolormatrix"></feColorMatrix></filter> <filter id="colorsf6551209693"><feColorMatrix type="matrix" values="0 0 0 0 0.99609375  0 0 0 0 0.99609375  0 0 0 0 0.99609375  0 0 0 1 0" class="icon-fecolormatrix"></feColorMatrix></filter> <filter id="colorsb6128004360"><feColorMatrix type="matrix" values="0 0 0 0 0  0 0 0 0 0  0 0 0 0 0  0 0 0 1 0" class="icon-fecolormatrix"></feColorMatrix></filter></defs></g></g> <g transform="translate(0,67)"><g data-gra="path-name" fill-rule="" class="tp-name iconsvg-namesvg"><g transform="scale(1)"><g><path d="M11.34-1.52L2.33-1.52C1.93-1.52 1.6-1.86 1.6-2.25L1.6-3.32 0.08-3.32 0.08-2.25C0.08-1.01 1.09 0 2.33 0L11.34 0C12.59 0 13.6-1.01 13.6-2.25L13.6-13.52 12.08-13.52 12.08-2.25C12.08-1.86 11.74-1.52 11.34-1.52ZM15.61-8.62L15.61-2.27C15.61-1.03 16.64 0 17.88 0L26.71 0 26.71-1.54 17.88-1.54C17.48-1.54 17.15-1.88 17.15-2.27L17.15-4.68 26.71-4.68 26.71-8.62C26.71-9.87 25.67-10.89 24.42-10.89L17.88-10.89C16.64-10.89 15.61-9.86 15.61-8.62ZM17.88-9.35L24.42-9.35C24.81-9.35 25.15-9.02 25.15-8.62L25.15-6.22 17.15-6.22 17.15-8.62C17.15-9.02 17.48-9.35 17.88-9.35ZM28.53-8.62L28.53 0 30.07 0 30.07-8.62C30.07-9.02 30.4-9.35 30.8-9.35L36.92-9.35 36.92-10.89 30.8-10.89C29.56-10.89 28.53-9.86 28.53-8.62ZM38.14-8.62L38.14 0 39.68 0 39.68-8.62C39.68-9.02 40.02-9.35 40.42-9.35L46.54-9.35 46.54-10.89 40.42-10.89C39.18-10.89 38.14-9.86 38.14-8.62ZM56.38-1.54L49.85-1.54C49.45-1.54 49.11-1.88 49.11-2.27L49.11-10.86 47.57-10.86 47.57-2.27C47.57-1.03 48.6 0 49.85 0L57.11 0 57.11 2.03C57.11 2.43 56.78 2.76 56.38 2.76L49.58 2.76 49.58 4.32 56.38 4.32C57.65 4.32 58.65 3.3 58.65 2.03L58.65-10.86 57.11-10.86 57.11-2.27C57.11-1.88 56.78-1.54 56.38-1.54ZM68.08-6.33L60.76-6.33 60.76-4.79 68.08-4.79ZM71.86-2.27L71.86-8.62C71.86-9.02 72.19-9.35 72.59-9.35L81.38-9.35 81.38-10.89 72.59-10.89C71.35-10.89 70.32-9.86 70.32-8.62L70.32-2.27C70.32-1.03 71.35 0 72.59 0L81.42 0 81.42-1.54 72.59-1.54C72.19-1.54 71.86-1.88 71.86-2.27ZM83.37-8.62L83.37-2.27C83.37-1.03 84.4 0 85.64 0L92.18 0C93.44 0 94.47-1.02 94.47-2.27L94.47-8.62C94.47-9.87 93.44-10.89 92.18-10.89L85.64-10.89C84.4-10.89 83.37-9.86 83.37-8.62ZM92.91-8.62L92.91-2.27C92.91-1.88 92.58-1.54 92.18-1.54L85.64-1.54C85.25-1.54 84.91-1.88 84.91-2.27L84.91-8.62C84.91-9.02 85.25-9.35 85.64-9.35L92.18-9.35C92.58-9.35 92.91-9.02 92.91-8.62ZM98.71-9.35L103.26-9.35C103.66-9.35 103.99-9.02 103.99-8.62L103.99 0 105.55 0 105.55-8.62C105.55-9.02 105.89-9.35 106.28-9.35L110.81-9.35C111.21-9.35 111.56-9.02 111.56-8.62L111.56 0 113.08 0 113.08-8.62C113.08-9.87 112.07-10.89 110.81-10.89L96.42-10.89 96.42 0 97.98 0 97.98-8.62C97.98-9.02 98.32-9.35 98.71-9.35ZM116.84-9.35L121.38-9.35C121.78-9.35 122.12-9.02 122.12-8.62L122.12 0 123.67 0 123.67-8.62C123.67-9.02 124.01-9.35 124.41-9.35L128.93-9.35C129.33-9.35 129.68-9.02 129.68-8.62L129.68 0 131.21 0 131.21-8.62C131.21-9.87 130.19-10.89 128.93-10.89L114.55-10.89 114.55 0 116.11 0 116.11-8.62C116.11-9.02 116.44-9.35 116.84-9.35ZM132.86-8.62L132.86-2.27C132.86-1.03 133.89 0 135.13 0L143.96 0 143.96-1.54 135.13-1.54C134.73-1.54 134.4-1.88 134.4-2.27L134.4-4.68 143.96-4.68 143.96-8.62C143.96-9.87 142.92-10.89 141.67-10.89L135.13-10.89C133.89-10.89 132.86-9.86 132.86-8.62ZM135.13-9.35L141.67-9.35C142.06-9.35 142.4-9.02 142.4-8.62L142.4-6.22 134.4-6.22 134.4-8.62C134.4-9.02 134.73-9.35 135.13-9.35ZM145.78-8.62L145.78 0 147.32 0 147.32-8.62C147.32-9.02 147.66-9.35 148.05-9.35L154.18-9.35 154.18-10.89 148.05-10.89C146.81-10.89 145.78-9.86 145.78-8.62ZM156.92-2.27L156.92-8.62C156.92-9.02 157.25-9.35 157.65-9.35L166.44-9.35 166.44-10.89 157.65-10.89C156.41-10.89 155.38-9.86 155.38-8.62L155.38-2.27C155.38-1.03 156.41 0 157.65 0L166.48 0 166.48-1.54 157.65-1.54C157.25-1.54 156.92-1.88 156.92-2.27ZM167.96-8.62L167.96-2.27C167.96-1.03 168.99 0 170.23 0L179.06 0 179.06-1.54 170.23-1.54C169.84-1.54 169.5-1.88 169.5-2.27L169.5-4.68 179.06-4.68 179.06-8.62C179.06-9.87 178.03-10.89 176.77-10.89L170.23-10.89C168.99-10.89 167.96-9.86 167.96-8.62ZM170.23-9.35L176.77-9.35C177.17-9.35 177.5-9.02 177.5-8.62L177.5-6.22 169.5-6.22 169.5-8.62C169.5-9.02 169.84-9.35 170.23-9.35Z" transform="translate(-0.08000000566244125, 13.520000457763672)"></path></g> <!----> <!----> <!----> <!----> <!----> <!----> <!----></g></g> <!----></g></g><defs v-gra="od"></defs></svg>